<svg xmlns="http://www.w3.org/2000/svg" width="432" height="96" viewBox="0 0 432 96" shape-rendering="crispEdges">
<ellipse cx="24" cy="87" rx="15" ry="5" fill="#05080b" opacity=".42"/>
<rect x="17" y="59" width="8" height="25" fill="#3f2e34"/>
<rect x="28" y="59" width="8" height="25" fill="#3f2e34"/>
<rect x="14" y="30" width="24" height="35" fill="#3f2e34"/>
<rect x="14" y="46" width="24" height="6" fill="#5e7076"/>
<rect x="18" y="13" width="17" height="19" fill="#948975"/>
<rect x="16" y="10" width="20" height="9" fill="#493930"/>
<rect x="13" y="19" width="5" height="11" fill="#493930"/>
<path d="M17 39 L31 44" stroke="#948975" stroke-width="5"/>
<rect x="26" y="40" width="20" height="5" fill="#283036"/>
<rect x="33" y="39" width="6" height="3" fill="#5e7076"/>
<rect x="27" y="20" width="6" height="5" fill="#7e121c"/>
<rect x="12" y="42" width="9" height="7" fill="#671018"/>
<ellipse cx="72" cy="87" rx="15" ry="5" fill="#05080b" opacity=".42"/>
<rect x="65" y="60" width="8" height="25" fill="#3f2e34"/>
<rect x="76" y="58" width="8" height="25" fill="#3f2e34"/>
<rect x="62" y="30" width="24" height="35" fill="#3f2e34"/>
<rect x="62" y="46" width="24" height="6" fill="#5e7076"/>
<rect x="66" y="14" width="17" height="19" fill="#948975"/>
<rect x="64" y="11" width="20" height="9" fill="#493930"/>
<rect x="61" y="20" width="5" height="11" fill="#493930"/>
<path d="M65 39 L79 44" stroke="#948975" stroke-width="5"/>
<rect x="74" y="40" width="20" height="5" fill="#283036"/>
<rect x="81" y="39" width="6" height="3" fill="#5e7076"/>
<rect x="75" y="20" width="6" height="5" fill="#7e121c"/>
<rect x="60" y="42" width="9" height="7" fill="#671018"/>
<ellipse cx="120" cy="87" rx="15" ry="5" fill="#05080b" opacity=".42"/>
<rect x="113" y="59" width="8" height="25" fill="#3f2e34"/>
<rect x="124" y="59" width="8" height="25" fill="#3f2e34"/>
<rect x="110" y="30" width="24" height="35" fill="#3f2e34"/>
<rect x="110" y="46" width="24" height="6" fill="#5e7076"/>
<rect x="114" y="13" width="17" height="19" fill="#948975"/>
<rect x="112" y="10" width="20" height="9" fill="#493930"/>
<rect x="109" y="19" width="5" height="11" fill="#493930"/>
<path d="M113 39 L127 44" stroke="#948975" stroke-width="5"/>
<rect x="122" y="40" width="20" height="5" fill="#283036"/>
<rect x="129" y="39" width="6" height="3" fill="#5e7076"/>
<rect x="123" y="20" width="6" height="5" fill="#7e121c"/>
<rect x="108" y="42" width="9" height="7" fill="#671018"/>
<ellipse cx="168" cy="87" rx="15" ry="5" fill="#05080b" opacity=".42"/>
<rect x="161" y="59" width="8" height="25" fill="#3f2e34"/>
<rect x="172" y="59" width="8" height="25" fill="#3f2e34"/>
<rect x="158" y="30" width="24" height="35" fill="#3f2e34"/>
<rect x="158" y="46" width="24" height="6" fill="#5e7076"/>
<rect x="162" y="13" width="17" height="19" fill="#948975"/>
<rect x="160" y="10" width="20" height="9" fill="#493930"/>
<rect x="157" y="19" width="5" height="11" fill="#493930"/>
<path d="M161 39 L175 44" stroke="#948975" stroke-width="5"/>
<rect x="170" y="40" width="20" height="5" fill="#283036"/>
<rect x="177" y="39" width="6" height="3" fill="#5e7076"/>
<rect x="171" y="20" width="6" height="5" fill="#7e121c"/>
<rect x="156" y="42" width="9" height="7" fill="#671018"/>
<path d="M189 42 L192 35 L192 48 Z" fill="#ffb634"/>
<ellipse cx="216" cy="87" rx="15" ry="5" fill="#05080b" opacity=".42"/>
<rect x="209" y="59" width="8" height="25" fill="#3f2e34"/>
<rect x="220" y="59" width="8" height="25" fill="#3f2e34"/>
<rect x="206" y="30" width="24" height="35" fill="#3f2e34"/>
<rect x="206" y="46" width="24" height="6" fill="#5e7076"/>
<rect x="210" y="13" width="17" height="19" fill="#948975"/>
<rect x="208" y="10" width="20" height="9" fill="#493930"/>
<rect x="205" y="19" width="5" height="11" fill="#493930"/>
<path d="M209 39 L223 44" stroke="#948975" stroke-width="5"/>
<rect x="218" y="40" width="20" height="5" fill="#283036"/>
<rect x="225" y="39" width="6" height="3" fill="#5e7076"/>
<rect x="219" y="20" width="6" height="5" fill="#7e121c"/>
<rect x="204" y="42" width="9" height="7" fill="#671018"/>
<ellipse cx="264" cy="87" rx="15" ry="5" fill="#05080b" opacity=".42"/>
<rect x="257" y="60" width="8" height="25" fill="#3f2e34"/>
<rect x="268" y="58" width="8" height="25" fill="#3f2e34"/>
<rect x="254" y="30" width="24" height="35" fill="#3f2e34"/>
<rect x="254" y="46" width="24" height="6" fill="#5e7076"/>
<rect x="258" y="14" width="17" height="19" fill="#948975"/>
<rect x="256" y="11" width="20" height="9" fill="#493930"/>
<rect x="253" y="20" width="5" height="11" fill="#493930"/>
<path d="M257 39 L271 44" stroke="#948975" stroke-width="5"/>
<rect x="266" y="40" width="20" height="5" fill="#283036"/>
<rect x="273" y="39" width="6" height="3" fill="#5e7076"/>
<rect x="267" y="20" width="6" height="5" fill="#7e121c"/>
<rect x="252" y="42" width="9" height="7" fill="#671018"/>
<ellipse cx="312" cy="87" rx="15" ry="5" fill="#05080b" opacity=".42"/>
<rect x="305" y="59" width="8" height="25" fill="#3f2e34"/>
<rect x="316" y="59" width="8" height="25" fill="#3f2e34"/>
<rect x="302" y="30" width="24" height="35" fill="#3f2e34"/>
<rect x="302" y="46" width="24" height="6" fill="#5e7076"/>
<rect x="306" y="13" width="17" height="19" fill="#948975"/>
<rect x="304" y="10" width="20" height="9" fill="#493930"/>
<rect x="301" y="19" width="5" height="11" fill="#493930"/>
<path d="M305 39 L319 44" stroke="#948975" stroke-width="5"/>
<rect x="314" y="40" width="20" height="5" fill="#283036"/>
<rect x="321" y="39" width="6" height="3" fill="#5e7076"/>
<rect x="315" y="20" width="6" height="5" fill="#7e121c"/>
<rect x="300" y="42" width="9" height="7" fill="#671018"/>
<ellipse cx="360" cy="87" rx="15" ry="5" fill="#05080b" opacity=".42"/>
<rect x="353" y="59" width="8" height="25" fill="#3f2e34"/>
<rect x="364" y="59" width="8" height="25" fill="#3f2e34"/>
<rect x="350" y="30" width="24" height="35" fill="#3f2e34"/>
<rect x="350" y="46" width="24" height="6" fill="#5e7076"/>
<rect x="354" y="13" width="17" height="19" fill="#948975"/>
<rect x="352" y="10" width="20" height="9" fill="#493930"/>
<rect x="349" y="19" width="5" height="11" fill="#493930"/>
<path d="M353 67 L367 72" stroke="#948975" stroke-width="5"/>
<rect x="362" y="68" width="20" height="5" fill="#283036"/>
<rect x="369" y="67" width="6" height="3" fill="#5e7076"/>
<rect x="363" y="20" width="6" height="5" fill="#7e121c"/>
<rect x="348" y="42" width="9" height="7" fill="#671018"/>
<ellipse cx="408" cy="87" rx="15" ry="5" fill="#05080b" opacity=".42"/>
<rect x="401" y="59" width="8" height="25" fill="#3f2e34"/>
<rect x="412" y="59" width="8" height="25" fill="#3f2e34"/>
<rect x="398" y="30" width="24" height="35" fill="#3f2e34"/>
<rect x="398" y="46" width="24" height="6" fill="#5e7076"/>
<rect x="402" y="13" width="17" height="19" fill="#948975"/>
<rect x="400" y="10" width="20" height="9" fill="#493930"/>
<rect x="397" y="19" width="5" height="11" fill="#493930"/>
<path d="M401 39 L415 44" stroke="#948975" stroke-width="5"/>
<rect x="410" y="40" width="20" height="5" fill="#283036"/>
<rect x="417" y="39" width="6" height="3" fill="#5e7076"/>
<rect x="411" y="20" width="6" height="5" fill="#7e121c"/>
<rect x="396" y="42" width="9" height="7" fill="#671018"/>
</svg>
