<svg xmlns="http://www.w3.org/2000/svg" width="640" height="520" viewBox="0 0 640 520" shape-rendering="crispEdges"><path fill="#17262c" d="M0 0h640v520H0z"/><path fill="#31464a" d="M0 42h640v358H0z"/><path fill="#40575a" d="M0 42h640v14H0z"/><path fill="#263b40" d="M0 180h640v220H0z"/><path fill="#6b7975" d="M0 174h640v8H0z"/><path fill="#1b292e" d="M0 400h640v120H0z"/><path fill="#0d171b" d="M0 492h640v28H0z"/><path fill="#536562" d="M22 74h190v8H22z"/><path fill="#293e42" d="M22 82h190v70H22z"/><path fill="#344b4e" d="M235 74h180v78H235z"/><path fill="#23373b" d="M438 74h180v78H438z"/><path fill="#84908a" d="M0 210h640v4H0z"/><path fill="#101d21" d="M0 356h640v10H0z"/><path fill="#3a4d4e" d="M45 245h130v74H45z"/><path fill="#2a3c3f" d="M186 245h190v74H186z"/><path fill="#445554" d="M390 245h205v74H390z"/><path fill="#28383a" d="M65 378h220v14H65z"/><path fill="#56645e" d="M330 378h245v14H330z"/><path fill="#213136" d="M88 110h38v5H88z"/><path fill="#718079" d="M474 118h72v4h-72z"/><path fill="#202e31" d="M520 270h55v9h-55z"/><path fill="#5a4438" d="M280 340h94v8h-94z"/><path fill="#253538" d="M16 440h608v6H16z"/></svg>
