<svg xmlns="http://www.w3.org/2000/svg" width="250" height="100" viewBox="0 0 250 100" shape-rendering="crispEdges"><path fill="#0c1518" d="M4 87h242v9H4z"/><path fill="#3b4442" d="m12 82 35-31 31 11 25-42 38 35 30-18 68 48z"/><path fill="#59605b" d="m19 80 29-22 27 10 27-39 29 30 39-15 54 38z"/><path fill="#272f30" d="m28 79 22-14 21 8-8 13zm65 4 11-44 19 22-7 24zm44 1 34-31 29 30z"/><path fill="#766053" d="m49 59 20 8-5 7-18-8zm112-13 30 18-4 7-33-18z"/><path fill="#848882" d="m105 31 7 2-7 37-7-2z"/></svg>
