<svg xmlns="http://www.w3.org/2000/svg" width="320" height="360" viewBox="0 0 320 360" shape-rendering="crispEdges"><path fill="#111c21" d="M0 0h320v360H0z"/><path fill="#536364" d="M8 8h304v344H8z"/><path fill="#19292f" d="M20 20h280v320H20z"/><path fill="#2d4145" d="M28 28h264v304H28z"/><path fill="#0b171d" d="M42 28h18v304H42z"/><path fill="#798887" d="M48 28h5v304h-5z"/><path fill="#0b171d" d="M88 28h18v304H88z"/><path fill="#798887" d="M94 28h5v304h-5z"/><path fill="#0b171d" d="M134 28h18v304h-18z"/><path fill="#798887" d="M140 28h5v304h-5z"/><path fill="#0b171d" d="M180 28h18v304h-18z"/><path fill="#798887" d="M186 28h5v304h-5z"/><path fill="#0b171d" d="M226 28h18v304h-18z"/><path fill="#798887" d="M232 28h5v304h-5z"/><path fill="#0b171d" d="M272 28h16v304h-16z"/><path fill="#71807f" d="M20 96h280v14H20z"/><path fill="#19272b" d="M20 102h280v8H20z"/><path fill="#71807f" d="M20 246h280v14H20z"/><path fill="#19272b" d="M20 252h280v8H20z"/><path fill="#8e7a48" d="M148 169h38v45h-38z"/><path fill="#382f25" d="M154 176h26v31h-26z"/><path fill="#d0b654" d="M160 181h10v7h-10z"/></svg>
