<svg xmlns="http://www.w3.org/2000/svg" width="180" height="340" viewBox="0 0 180 340" shape-rendering="crispEdges"><path fill="#111b20" d="M0 0h180v340H0z"/><path fill="#596968" d="M8 8h164v332H8z"/><path fill="#263b40" d="M20 20h140v320H20z"/><path fill="#354b4d" d="M28 28h124v304H28z"/><path fill="#425657" d="M36 38h108v112H36z"/><path fill="#293d41" d="M42 44h96v100H42z"/><path fill="#18292f" d="M48 52h84v84H48z"/><path fill="#667b7d" d="M48 52h84v7H48z"/><path fill="#23363a" d="M36 164h108v150H36z"/><path fill="#3b4f50" d="M44 172h92v134H44z"/><path fill="#1d3035" d="M50 178h80v122H50z"/><path fill="#74827f" d="M28 322h124v10H28z"/><path fill="#101a1e" d="M0 332h180v8H0z"/><path fill="#7b8b88" d="M151 16h8v316h-8z"/><path fill="#121e22" d="M20 16h7v316h-7z"/><path fill="#b19a4b" d="M111 198h20v32h-20z"/><path fill="#3a3228" d="M115 202h12v24h-12z"/><path fill="#d5c06a" d="M117 205h7v7h-7z"/><path fill="#6b5042" d="M52 268h61v8H52z"/><path fill="#1c292c" d="M49 78h36v7H49z"/><path fill="#8c9790" d="M58 186h52v5H58z"/><path fill="#263437" d="M58 291h64v5H58z"/></svg>
