<svg xmlns="http://www.w3.org/2000/svg" width="420" height="300" viewBox="0 0 420 300" shape-rendering="crispEdges"><path fill="#17252b" d="M0 0h420v300H0z"/><path fill="#5c6d6c" d="M10 10h400v270H10z"/><path fill="#24383d" d="M22 24h376v224H22z"/><path fill="#0c1b22" d="M34 36h352v198H34z"/><path fill="#18303a" d="M42 44h336v182H42z"/><path fill="#304b51" d="M42 44h336v18H42z"/><path fill="#789197" d="M42 62h336v5H42z"/><path fill="#111e24" d="M104 44h9v182h-9z"/><path fill="#687a7b" d="M108 44h5v182h-5z"/><path fill="#111e24" d="M207 44h9v182h-9z"/><path fill="#687a7b" d="M211 44h5v182h-5z"/><path fill="#111e24" d="M310 44h9v182h-9z"/><path fill="#687a7b" d="M314 44h5v182h-5z"/><path fill="#0e1a1f" d="M22 248h376v32H22z"/><path fill="#71817c" d="M0 280h420v20H0z"/><path fill="#2a3839" d="M0 292h420v8H0z"/><path fill="#9aa39b" d="M38 270h344v6H38z"/><path fill="#6b5546" d="M54 255h76v7H54z"/><path fill="#17262b" d="M250 252h112v11H250z"/><path fill="#b0b8ad" d="M180 255h35v5h-35z"/><path fill="#405a5c" d="M55 95h30v18H55z"/><path fill="#1c3036" d="M244 75h52v7h-52z"/></svg>
