<?xml version="1.0" encoding="UTF-8"?>
<svg xmlns="http://www.w3.org/2000/svg" width="192" height="16" viewBox="0 0 192 16" shape-rendering="crispEdges">
  <!-- Palette -->
  <!-- outline: #1f2a30, panel: #cbd9e2, accent: #3f6b86, text/icon: #203845, warning: #2f9257 -->

  <!-- 1) cartel institucional -->
  <rect x="0" y="0" width="48" height="16" fill="#cbd9e2"/>
  <rect x="0" y="0" width="48" height="1" fill="#1f2a30"/>
  <rect x="0" y="15" width="48" height="1" fill="#1f2a30"/>
  <rect x="0" y="0" width="1" height="16" fill="#1f2a30"/>
  <rect x="47" y="0" width="1" height="16" fill="#1f2a30"/>
  <rect x="2" y="2" width="44" height="4" fill="#3f6b86"/>
  <rect x="4" y="3" width="4" height="2" fill="#cbd9e2"/>
  <rect x="10" y="3" width="14" height="2" fill="#cbd9e2"/>
  <rect x="3" y="8" width="18" height="1" fill="#203845"/>
  <rect x="3" y="10" width="28" height="1" fill="#203845"/>
  <rect x="3" y="12" width="16" height="1" fill="#203845"/>
  <rect x="35" y="8" width="9" height="5" fill="#3f6b86"/>
  <rect x="36" y="9" width="7" height="3" fill="#cbd9e2"/>

  <!-- 2) panel informativo -->
  <rect x="48" y="0" width="48" height="16" fill="#cbd9e2"/>
  <rect x="48" y="0" width="48" height="1" fill="#1f2a30"/>
  <rect x="48" y="15" width="48" height="1" fill="#1f2a30"/>
  <rect x="48" y="0" width="1" height="16" fill="#1f2a30"/>
  <rect x="95" y="0" width="1" height="16" fill="#1f2a30"/>
  <rect x="50" y="2" width="44" height="3" fill="#3f6b86"/>
  <rect x="52" y="3" width="3" height="1" fill="#cbd9e2"/>
  <rect x="57" y="3" width="12" height="1" fill="#cbd9e2"/>
  <rect x="51" y="7" width="18" height="2" fill="#203845"/>
  <rect x="71" y="7" width="22" height="2" fill="#203845"/>
  <rect x="51" y="10" width="42" height="1" fill="#203845"/>
  <rect x="51" y="12" width="24" height="1" fill="#203845"/>
  <rect x="84" y="12" width="9" height="1" fill="#203845"/>

  <!-- 3) señal de salida -->
  <rect x="96" y="0" width="48" height="16" fill="#cfe6d7"/>
  <rect x="96" y="0" width="48" height="1" fill="#1f2a30"/>
  <rect x="96" y="15" width="48" height="1" fill="#1f2a30"/>
  <rect x="96" y="0" width="1" height="16" fill="#1f2a30"/>
  <rect x="143" y="0" width="1" height="16" fill="#1f2a30"/>
  <rect x="98" y="2" width="44" height="12" fill="#2f9257"/>
  <rect x="101" y="4" width="11" height="2" fill="#cfe6d7"/>
  <rect x="101" y="7" width="11" height="2" fill="#cfe6d7"/>
  <rect x="101" y="10" width="11" height="2" fill="#cfe6d7"/>
  <rect x="116" y="6" width="18" height="4" fill="#cfe6d7"/>
  <rect x="134" y="4" width="6" height="8" fill="#cfe6d7"/>
  <rect x="138" y="2" width="4" height="12" fill="#2f9257"/>

  <!-- 4) señal de escalera -->
  <rect x="144" y="0" width="48" height="16" fill="#cbd9e2"/>
  <rect x="144" y="0" width="48" height="1" fill="#1f2a30"/>
  <rect x="144" y="15" width="48" height="1" fill="#1f2a30"/>
  <rect x="144" y="0" width="1" height="16" fill="#1f2a30"/>
  <rect x="191" y="0" width="1" height="16" fill="#1f2a30"/>
  <rect x="146" y="2" width="44" height="12" fill="#3f6b86"/>
  <rect x="149" y="11" width="14" height="2" fill="#cbd9e2"/>
  <rect x="153" y="9" width="10" height="2" fill="#cbd9e2"/>
  <rect x="157" y="7" width="6" height="2" fill="#cbd9e2"/>
  <rect x="166" y="4" width="3" height="7" fill="#cbd9e2"/>
  <rect x="171" y="4" width="3" height="3" fill="#cbd9e2"/>
  <rect x="172" y="7" width="5" height="2" fill="#cbd9e2"/>
  <rect x="179" y="8" width="8" height="2" fill="#cbd9e2"/>
  <rect x="184" y="6" width="3" height="2" fill="#cbd9e2"/>
</svg>
